<mxfile host="app.diagrams.net" modified="2021-04-29T13:15:37.896Z" agent="5.0 (Windows NT 10.0; Win64; x64) AppleWebKit/537.36 (KHTML, like Gecko) Chrome/90.0.4430.93 Safari/537.36" etag="o06vSyEQTitVU8QLnzdj" version="14.6.6" type="github">
  <diagram id="0-pPOEypfPP8NExiLllJ" name="Page-1">
    <mxGraphModel dx="414" dy="257" grid="1" gridSize="10" guides="1" tooltips="1" connect="1" arrows="1" fold="1" page="1" pageScale="1" pageWidth="827" pageHeight="1169" math="0" shadow="0">
      <root>
        <mxCell id="0" />
        <mxCell id="1" parent="0" />
        <mxCell id="VcRs7Bl-WjDsgt3eSbQ8-1" value="" style="endArrow=classic;html=1;strokeColor=#FF0000;" edge="1" parent="1">
          <mxGeometry width="50" height="50" relative="1" as="geometry">
            <mxPoint x="540" y="240" as="sourcePoint" />
            <mxPoint x="520" y="280" as="targetPoint" />
          </mxGeometry>
        </mxCell>
        <mxCell id="VcRs7Bl-WjDsgt3eSbQ8-2" value="" style="endArrow=classic;html=1;strokeColor=#00FF00;" edge="1" parent="1">
          <mxGeometry width="50" height="50" relative="1" as="geometry">
            <mxPoint x="540" y="240" as="sourcePoint" />
            <mxPoint x="590" y="230" as="targetPoint" />
          </mxGeometry>
        </mxCell>
        <mxCell id="VcRs7Bl-WjDsgt3eSbQ8-3" value="" style="endArrow=classic;html=1;strokeColor=#007FFF;" edge="1" parent="1">
          <mxGeometry width="50" height="50" relative="1" as="geometry">
            <mxPoint x="540" y="240" as="sourcePoint" />
            <mxPoint x="520" y="200" as="targetPoint" />
          </mxGeometry>
        </mxCell>
        <mxCell id="VcRs7Bl-WjDsgt3eSbQ8-4" value="&lt;font color=&quot;#ff0000&quot; style=&quot;font-size: 10px&quot;&gt;x&lt;/font&gt;" style="text;html=1;strokeColor=none;fillColor=none;align=center;verticalAlign=middle;whiteSpace=wrap;rounded=0;rotation=-45;" vertex="1" parent="1">
          <mxGeometry x="530" y="270" width="10" height="10" as="geometry" />
        </mxCell>
        <mxCell id="VcRs7Bl-WjDsgt3eSbQ8-5" value="&lt;font style=&quot;font-size: 10px&quot; color=&quot;#007fff&quot;&gt;z&lt;/font&gt;" style="text;html=1;strokeColor=none;fillColor=none;align=center;verticalAlign=middle;whiteSpace=wrap;rounded=0;rotation=-30;" vertex="1" parent="1">
          <mxGeometry x="530" y="200" width="10" height="10" as="geometry" />
        </mxCell>
        <mxCell id="VcRs7Bl-WjDsgt3eSbQ8-6" value="&lt;font style=&quot;font-size: 10px&quot; color=&quot;#00ff00&quot;&gt;y&lt;/font&gt;" style="text;html=1;strokeColor=none;fillColor=none;align=center;verticalAlign=middle;whiteSpace=wrap;rounded=0;rotation=-10;" vertex="1" parent="1">
          <mxGeometry x="570" y="240" width="10" height="10" as="geometry" />
        </mxCell>
      </root>
    </mxGraphModel>
  </diagram>
</mxfile>
